<svg id="Capa_1" enable-background="new 0 0 511.356 511.356" height="512" viewBox="0 0 511.356 511.356" width="512" xmlns="http://www.w3.org/2000/svg"><g><g><g><g><g><path d="m85.029 236.247h79.628v184.944h-79.628z" fill="#fd7c90"/></g></g><g><g><path d="m85.029 130.297h79.628v95.701h-79.628z" fill="#e64e64"/></g></g><g><g><path d="m85.029 420.293h79.628v91.063h-79.628z" fill="#e64e64"/></g></g></g><g><g><g><path d="m346.699 236.247h79.628v184.944h-79.628z" fill="#e64e64"/></g></g><g><g><path d="m346.699 130.297h79.628v95.701h-79.628z" fill="#d4374e"/></g></g><g><g><path d="m346.699 420.293h79.628v91.063h-79.628z" fill="#d4374e"/></g></g></g></g><g><g><path d="m256.421 161.658h-16.2v46.652h-181.628v29.917h197.828z" fill="#677a86"/><path d="m270.138 208.31v-46.652h-14.298v76.569h196.924v-29.917z" fill="#5b6c76"/></g></g><g><path d="m59.686 96.417h197.122v79.868h-197.122z" fill="#edf5ff"/><path d="m255.678 96.417h195.992v79.868h-195.992z" fill="#d6e8fd"/></g><g><path d="m257.415 34.018h-233.12l-11.482-13.211v24.785c0 41.672 33.902 75.575 75.574 75.575h169.028z" fill="#677a86"/></g><g><path d="m487.34 34.018h-231.662v87.149h167.291c41.672 0 75.575-33.903 75.575-75.575v-24.785z" fill="#5b6c76"/></g><g><g><path d="m258.044 26.268h-181.863c-18.388 0-34.793-10.406-42.865-26.268h-32.183c9.678 33.293 40.169 56.331 75.048 56.331h181.863z" fill="#fd7c90"/></g></g><g><path d="m478.041 0c-8.073 15.862-24.478 26.268-42.866 26.268h-179.497v30.063h179.497c34.879 0 65.369-23.037 75.048-56.331z" fill="#e64e64"/></g></g></svg>